<svg width="48" height="48" viewBox="0 0 48 48" fill="none" xmlns="http://www.w3.org/2000/svg">
<rect width="48" height="48" fill="#E6D9CE"/>
<path d="M35.0319 38.4102H34.382C34.382 38.4041 34.3788 38.3979 34.3774 38.3922L34.3597 38.3215C34.3483 38.275 34.336 38.229 34.3232 38.1833C34.3177 38.1618 34.3118 38.1402 34.3059 38.1187C34.289 38.0584 34.2712 37.9981 34.253 37.9379L34.2475 37.9206C34.2275 37.8553 34.2065 37.7903 34.1847 37.7255L34.1628 37.6629C34.1477 37.6183 34.1318 37.5742 34.1172 37.53C34.1086 37.5058 34.0994 37.482 34.0908 37.4582C34.0748 37.4155 34.0584 37.3729 34.0416 37.3307C34.0329 37.3084 34.0238 37.2857 34.0151 37.2639C33.9939 37.2109 33.972 37.1582 33.9495 37.106C33.9445 37.0949 33.9404 37.0841 33.9354 37.073C33.9089 37.0115 33.8811 36.9505 33.8529 36.8894C33.8429 36.8671 33.8324 36.8452 33.8219 36.8233C33.8028 36.7849 33.7836 36.7427 33.764 36.7028L33.7271 36.6286C33.708 36.5902 33.6884 36.5518 33.6683 36.5134C33.656 36.4896 33.6433 36.4654 33.6305 36.4416C33.6073 36.3974 33.5849 36.3537 33.5589 36.3103C33.5494 36.2937 33.5407 36.2768 33.5311 36.2599C33.4988 36.2027 33.4655 36.1447 33.4318 36.0894L33.3862 36.0176L33.322 35.9135L33.2718 35.8367C33.2509 35.8045 33.2299 35.7722 33.2085 35.7399C33.1916 35.7138 33.1743 35.6877 33.157 35.6631C33.1333 35.6282 33.1114 35.594 33.0854 35.5594L33.0198 35.4657C32.9888 35.4227 32.9578 35.3793 32.9259 35.3367C32.9059 35.3098 32.8858 35.2833 32.8653 35.2568C32.8448 35.2303 32.8225 35.2 32.8006 35.1719C32.7787 35.1439 32.755 35.1159 32.735 35.0882C32.7149 35.0606 32.6931 35.0356 32.6716 35.0114C32.6502 34.9872 32.6261 34.955 32.6028 34.9269L32.5386 34.8501C32.493 34.799 32.4511 34.748 32.4064 34.6965L32.344 34.6262C32.3175 34.5966 32.2902 34.5675 32.2633 34.5383L32.2032 34.4737C32.1754 34.4442 32.1471 34.415 32.1188 34.3854L32.0596 34.3247L31.9712 34.2356L31.9188 34.1842C31.8099 34.0778 31.6982 33.9729 31.5838 33.8708L31.5337 33.8259L31.4289 33.7348L31.3774 33.6911C31.3409 33.6599 31.3045 33.6292 31.2675 33.5989L31.2297 33.5682C31.1008 33.4625 30.9681 33.3596 30.8332 33.2609L30.7963 33.2337C30.7547 33.2029 30.7128 33.1726 30.6705 33.1426L30.6286 33.1127C30.583 33.082 30.5416 33.0516 30.4974 33.0213L30.475 33.0063C30.326 32.9049 30.1733 32.8062 30.0193 32.7113L29.9979 32.6979C29.9491 32.6683 29.9004 32.6391 29.8512 32.6103L29.8188 32.5915C29.7687 32.562 29.7181 32.5331 29.6675 32.5043L29.6588 32.4997C29.4911 32.4053 29.3202 32.3148 29.1461 32.2282L29.1393 32.2244C29.0842 32.1971 29.029 32.1706 28.9739 32.1441L28.9497 32.1326C28.6562 31.9931 28.3548 31.865 28.0456 31.7485L28.0264 31.7412C27.9448 31.7105 27.8628 31.6809 27.7799 31.6518H29.4109C29.6766 31.6518 29.8922 31.3941 29.8922 31.0757C29.8922 30.7573 29.6766 30.4996 29.4109 30.4996H28.9251C28.9552 30.4351 28.9885 30.3621 29.0245 30.2799C29.4838 30.0388 30.2923 29.5249 31.0944 28.5809L31.1008 28.5736C31.1615 28.503 31.2212 28.4299 31.2799 28.3543L31.2917 28.3394C31.35 28.2652 31.4084 28.1888 31.4658 28.1089L31.4813 28.0878C31.5086 28.0494 31.536 28.011 31.5633 27.9726C31.5633 27.9726 31.5633 27.9695 31.5665 27.9676C31.5948 27.9292 31.6226 27.8869 31.6504 27.8459L31.6681 27.8193C31.6918 27.784 31.716 27.7479 31.7392 27.7114C31.7438 27.7049 31.7483 27.6984 31.7524 27.6915C31.7793 27.65 31.8062 27.6077 31.8327 27.5651L31.8509 27.5355C31.8728 27.5002 31.8942 27.4645 31.9156 27.4284C31.922 27.4184 31.9284 27.408 31.9343 27.3977C31.9598 27.3543 31.9853 27.3105 32.0108 27.2659L32.0286 27.2348C32.0487 27.1987 32.0692 27.1619 32.0892 27.125L32.1111 27.0866C32.1357 27.0413 32.1599 26.9952 32.184 26.9487L32.1991 26.9191C32.2191 26.8807 32.2387 26.8423 32.2583 26.8039L32.2815 26.7578C32.3043 26.7114 32.3271 26.6645 32.349 26.6173C32.3531 26.6088 32.3572 26.6 32.3608 26.5915C32.3813 26.5482 32.4014 26.504 32.4215 26.4594L32.4442 26.4087C32.4629 26.3665 32.4816 26.3239 32.4998 26.2812L32.5135 26.249C32.5349 26.1983 32.5559 26.1464 32.5769 26.0954L32.5987 26.0408C32.6151 26.0001 32.6311 25.9586 32.647 25.9172C32.653 25.9018 32.6589 25.8864 32.6644 25.8711C32.6844 25.8181 32.7045 25.7639 32.7241 25.7098C32.7304 25.691 32.7373 25.6714 32.7436 25.6537L32.7892 25.5274C32.7951 25.5089 32.8015 25.4889 32.8075 25.4724C32.8261 25.4167 32.8448 25.3599 32.8626 25.3027C32.8685 25.2846 32.874 25.2662 32.8795 25.2478C32.8931 25.2036 32.9068 25.1594 32.92 25.1145C32.9259 25.0941 32.9319 25.0738 32.9382 25.0534C32.9551 24.9943 32.972 24.9348 32.9884 24.8745L33.002 24.8242C33.0148 24.7762 33.0276 24.7278 33.0399 24.679L33.0563 24.6137C33.0718 24.5511 33.0873 24.4885 33.1018 24.4247C33.105 24.4125 33.1078 24.3998 33.1105 24.3863C33.1233 24.3314 33.1356 24.2757 33.1474 24.2201C33.1524 24.1974 33.157 24.1747 33.162 24.1521C33.1739 24.0949 33.1853 24.0369 33.1966 23.9796C33.1989 23.9673 33.2017 23.9554 33.2039 23.9435C33.2167 23.8759 33.2292 23.8078 33.2413 23.7392C33.2454 23.7162 33.2495 23.6931 33.2532 23.6697C33.2627 23.614 33.2718 23.558 33.281 23.5011L33.2892 23.4489C33.3001 23.3782 33.3106 23.3072 33.3206 23.235C33.3238 23.2123 33.3265 23.1897 33.3297 23.1666C33.3376 23.1093 33.3449 23.0517 33.3516 22.9938C33.3543 22.973 33.3571 22.9527 33.3593 22.932C33.3681 22.8577 33.3764 22.7828 33.3839 22.7073C33.3839 22.6862 33.388 22.665 33.3899 22.6435C33.3958 22.5829 33.4017 22.5218 33.4067 22.4603C33.4067 22.4377 33.4108 22.415 33.4127 22.3924C33.419 22.314 33.425 22.2352 33.4304 22.1558C33.4304 22.1377 33.4304 22.1174 33.4336 22.1013C33.4377 22.0352 33.4418 21.9688 33.445 21.9019C33.445 21.8777 33.445 21.8536 33.4487 21.8294C33.4523 21.7468 33.456 21.6638 33.4587 21.5797C33.4587 21.5682 33.4587 21.5563 33.4587 21.5444C33.4611 21.4696 33.4629 21.3941 33.4642 21.3178C33.4642 21.2928 33.4642 21.2679 33.4642 21.2429C33.4642 21.161 33.4642 21.0785 33.4642 20.9956V20.9764C33.4642 20.8881 33.4642 20.7986 33.4642 20.7076V20.6307C33.4642 20.5539 33.4605 20.4733 33.4582 20.3934V20.35C33.455 20.2578 33.4509 20.1645 33.4468 20.0708C33.4468 20.0466 33.4441 20.022 33.4432 19.9978C33.4392 19.919 33.4347 19.8396 33.4295 19.7597C33.4295 19.7401 33.4295 19.7213 33.4259 19.7002C33.4195 19.6042 33.4125 19.5074 33.4049 19.4099L33.3994 19.3419C33.3926 19.2605 33.3858 19.1787 33.378 19.0961C33.378 19.0723 33.3739 19.0485 33.3716 19.0247C33.3621 18.9248 33.3516 18.8238 33.3407 18.7224C33.3407 18.7032 33.3361 18.684 33.3343 18.6644C33.3247 18.578 33.3142 18.4908 33.3037 18.4029C33.3005 18.3764 33.2974 18.3503 33.2937 18.3238C33.281 18.2193 33.2673 18.1145 33.2527 18.0081C33.2527 17.995 33.2486 17.982 33.2468 17.9697C33.2337 17.8744 33.2199 17.7787 33.2053 17.6824C33.2007 17.654 33.1966 17.6256 33.1921 17.5972C33.1751 17.4881 33.1576 17.3781 33.1397 17.2673C31.3168 6.33188 18.3987 8.10656 18.3987 8.10656L18.8125 10.4562L11 17.4113L11.3413 20.0969L14.3008 21.6331C14.4328 21.3505 14.6022 21.0814 14.8058 20.8308C16.7153 18.9747 20.4199 17.5177 21.4804 17.2154C21.6927 17.1551 21.8135 17.1248 21.8135 17.1248C16.7408 22.6574 17.3177 28.9957 17.5438 30.5065C17.3086 30.5449 17.1268 30.7842 17.1268 31.0761C17.1268 31.3941 17.3424 31.6521 17.608 31.6521H19.2391C16.5264 32.609 14.3732 34.4315 13.2495 36.7216C13.2481 36.7247 13.2466 36.7278 13.2449 36.7308C13.162 36.9008 13.0848 37.0732 13.0134 37.2481C13.0135 37.2499 13.0135 37.2517 13.0134 37.2535C12.9943 37.3011 12.9756 37.3487 12.9574 37.3967C12.9505 37.414 12.9437 37.4313 12.9373 37.449C12.9209 37.492 12.9057 37.5354 12.8917 37.5792C12.8835 37.6014 12.8758 37.6241 12.868 37.6464C12.8534 37.6875 12.8393 37.7289 12.8256 37.7704L12.801 37.8472C12.7883 37.8856 12.7755 37.9267 12.7637 37.9667C12.755 37.9951 12.7468 38.0231 12.7386 38.0515C12.7277 38.0899 12.7163 38.1283 12.7058 38.1667C12.6953 38.2052 12.6853 38.2436 12.6753 38.2843C12.6652 38.325 12.6525 38.3726 12.6415 38.4171H11.9912C11.8662 38.4148 11.7418 38.4336 11.6255 38.4723C11.5091 38.511 11.4031 38.5689 11.3137 38.6427C11.2243 38.7164 11.1533 38.8044 11.1048 38.9016C11.0562 38.9987 11.0313 39.1031 11.0313 39.2085C11.0313 39.3139 11.0562 39.4182 11.1048 39.5154C11.1533 39.6126 11.2243 39.7006 11.3137 39.7743C11.4031 39.848 11.5091 39.9059 11.6255 39.9447C11.7418 39.9834 11.8662 40.0021 11.9912 39.9998H35.0401C35.1651 40.0021 35.2895 39.9834 35.4058 39.9447C35.5221 39.9059 35.6281 39.848 35.7175 39.7743C35.807 39.7006 35.878 39.6126 35.9265 39.5154C35.975 39.4182 36 39.3139 36 39.2085C36 39.1031 35.975 38.9987 35.9265 38.9016C35.878 38.8044 35.807 38.7164 35.7175 38.6427C35.6281 38.5689 35.5221 38.511 35.4058 38.4723C35.2895 38.4336 35.1651 38.4148 35.0401 38.4171L35.0319 38.4102Z" fill="#595653"/>
</svg>
