<svg width="212" height="32" viewBox="0 0 212 32" fill="none" xmlns="http://www.w3.org/2000/svg">
<path d="M18.0239 27.6586H17.5365C17.5365 27.6534 17.5341 27.6483 17.5331 27.6434L17.5197 27.5838C17.5112 27.5446 17.502 27.5057 17.4924 27.4671C17.4883 27.449 17.4839 27.4308 17.4794 27.4127C17.4668 27.3618 17.4534 27.3109 17.4398 27.2601L17.4357 27.2455C17.4206 27.1904 17.4049 27.1355 17.3885 27.0809L17.3721 27.0281C17.3608 26.9905 17.3488 26.9532 17.3379 26.9159C17.3314 26.8955 17.3246 26.8754 17.3181 26.8553C17.3061 26.8194 17.2938 26.7834 17.2812 26.7478C17.2747 26.729 17.2678 26.7098 17.2613 26.6914C17.2454 26.6467 17.229 26.6023 17.2121 26.5582C17.2084 26.5488 17.2053 26.5397 17.2015 26.5303C17.1817 26.4785 17.1609 26.427 17.1397 26.3754C17.1321 26.3566 17.1243 26.3382 17.1164 26.3197C17.1021 26.2873 17.0877 26.2517 17.073 26.218L17.0453 26.1554C17.031 26.123 17.0163 26.0906 17.0012 26.0582C16.992 26.0381 16.9824 26.0177 16.9729 25.9976C16.9554 25.9603 16.9387 25.9234 16.9192 25.8868C16.912 25.8728 16.9055 25.8586 16.8984 25.8443C16.8741 25.7961 16.8491 25.7471 16.8238 25.7005L16.7897 25.6399L16.7415 25.552L16.7039 25.4872C16.6882 25.46 16.6724 25.4328 16.6564 25.4056C16.6437 25.3835 16.6307 25.3615 16.6177 25.3408C16.6 25.3113 16.5836 25.2824 16.5641 25.2533L16.5149 25.1742C16.4916 25.1379 16.4684 25.1013 16.4445 25.0653C16.4294 25.0427 16.4144 25.0203 16.399 24.9979C16.3836 24.9756 16.3669 24.95 16.3505 24.9263C16.3341 24.9027 16.3163 24.879 16.3012 24.8557C16.2862 24.8324 16.2698 24.8113 16.2537 24.7909C16.2377 24.7705 16.2196 24.7432 16.2021 24.7196L16.1539 24.6548C16.1197 24.6117 16.0883 24.5686 16.0548 24.5252L16.008 24.4659C15.9882 24.4409 15.9676 24.4163 15.9475 24.3917L15.9024 24.3372C15.8815 24.3123 15.8603 24.2876 15.8391 24.2627L15.7947 24.2115L15.7284 24.1363L15.6891 24.0929C15.6074 24.0031 15.5237 23.9147 15.4379 23.8285L15.4003 23.7906L15.3217 23.7138L15.283 23.6768C15.2557 23.6506 15.2283 23.6247 15.2007 23.5991L15.1723 23.5731C15.0756 23.484 14.9761 23.3972 14.8749 23.3139L14.8472 23.2909C14.816 23.265 14.7846 23.2394 14.7529 23.2141L14.7215 23.1888C14.6873 23.1629 14.6562 23.1373 14.623 23.1117L14.6063 23.0991C14.4945 23.0135 14.38 22.9302 14.2645 22.8502L14.2484 22.8389C14.2118 22.8139 14.1753 22.7893 14.1384 22.765L14.1141 22.7491C14.0765 22.7241 14.0386 22.6998 14.0006 22.6755L13.9941 22.6717C13.8683 22.5919 13.7402 22.5156 13.6096 22.4426L13.6045 22.4393C13.5631 22.4163 13.5218 22.394 13.4804 22.3716L13.4623 22.3619C13.2422 22.2441 13.0161 22.1361 12.7842 22.0378L12.7698 22.0317C12.7086 22.0058 12.6471 21.9808 12.5849 21.9562H13.8082C14.0075 21.9562 14.1691 21.7387 14.1691 21.4701C14.1691 21.2015 14.0075 20.9841 13.8082 20.9841H13.4438C13.4664 20.9296 13.4913 20.868 13.5183 20.7987C13.8629 20.5952 14.4692 20.1616 15.0708 19.3651L15.0756 19.359C15.1211 19.2994 15.1659 19.2377 15.2099 19.174L15.2188 19.1613C15.2625 19.0988 15.3063 19.0343 15.3493 18.9669L15.361 18.9491C15.3815 18.9167 15.402 18.8843 15.4225 18.8519C15.4225 18.8519 15.4225 18.8493 15.4249 18.8477C15.4461 18.8152 15.4669 18.7796 15.4878 18.7449L15.5011 18.7226C15.5189 18.6928 15.537 18.6623 15.5544 18.6315C15.5578 18.626 15.5613 18.6205 15.5643 18.6147C15.5845 18.5797 15.6047 18.544 15.6245 18.5081L15.6382 18.4831C15.6546 18.4533 15.6706 18.4232 15.6867 18.3927C15.6915 18.3843 15.6963 18.3755 15.7007 18.3668C15.7198 18.3302 15.739 18.2932 15.7581 18.2556L15.7715 18.2294C15.7865 18.1989 15.8019 18.1678 15.8169 18.1367L15.8333 18.1043C15.8518 18.0661 15.8699 18.0272 15.888 17.988L15.8993 17.963C15.9143 17.9306 15.929 17.8982 15.9437 17.8658L15.9612 17.8269C15.9782 17.7877 15.9953 17.7482 16.0117 17.7083C16.0148 17.7012 16.0179 17.6937 16.0206 17.6866C16.036 17.65 16.051 17.6127 16.0661 17.5751L16.0832 17.5324C16.0972 17.4967 16.1112 17.4608 16.1249 17.4248L16.1351 17.3976C16.1512 17.3548 16.1669 17.3111 16.1826 17.268L16.199 17.2219C16.2114 17.1876 16.2233 17.1526 16.2353 17.1176C16.2397 17.1046 16.2442 17.0917 16.2483 17.0787C16.2633 17.034 16.2783 16.9883 16.293 16.9426C16.2978 16.9267 16.303 16.9102 16.3077 16.8953L16.3419 16.7887C16.3464 16.7732 16.3511 16.7563 16.3556 16.7424C16.3696 16.6954 16.3836 16.6474 16.3969 16.5991C16.4014 16.5839 16.4055 16.5684 16.4096 16.5528C16.4198 16.5155 16.4301 16.4783 16.44 16.4404C16.4445 16.4232 16.4489 16.406 16.4537 16.3888C16.4663 16.3389 16.479 16.2887 16.4913 16.2378L16.5015 16.1954C16.5111 16.1549 16.5207 16.114 16.5299 16.0729L16.5422 16.0178C16.5538 15.965 16.5654 15.9122 16.5764 15.8584C16.5788 15.848 16.5808 15.8373 16.5829 15.826C16.5925 15.7796 16.6017 15.7327 16.6106 15.6857C16.6143 15.6666 16.6177 15.6474 16.6215 15.6283C16.6304 15.58 16.6389 15.5311 16.6475 15.4828C16.6492 15.4725 16.6512 15.4624 16.6529 15.4524C16.6625 15.3953 16.6719 15.3379 16.681 15.28C16.6841 15.2605 16.6871 15.2411 16.6899 15.2213C16.697 15.1743 16.7039 15.127 16.7107 15.0791L16.7169 15.035C16.7251 14.9754 16.7329 14.9154 16.7404 14.8545C16.7428 14.8354 16.7449 14.8163 16.7473 14.7968C16.7532 14.7484 16.7587 14.6998 16.7637 14.651C16.7657 14.6335 16.7678 14.6163 16.7695 14.5988C16.7761 14.5362 16.7823 14.473 16.788 14.4093C16.788 14.3915 16.791 14.3736 16.7924 14.3555C16.7968 14.3043 16.8013 14.2528 16.805 14.2009C16.805 14.1818 16.8081 14.1627 16.8095 14.1436C16.8143 14.0775 16.8187 14.0109 16.8228 13.944C16.8228 13.9287 16.8228 13.9115 16.8252 13.8979C16.8283 13.8422 16.8314 13.7861 16.8338 13.7298C16.8338 13.7093 16.8338 13.6889 16.8365 13.6685C16.8392 13.5989 16.842 13.5289 16.844 13.4579C16.844 13.4482 16.844 13.4381 16.844 13.4281C16.8458 13.365 16.8472 13.3013 16.8481 13.2369C16.8481 13.2158 16.8481 13.1948 16.8481 13.1737C16.8481 13.1046 16.8481 13.035 16.8481 12.965V12.9488C16.8481 12.8743 16.8481 12.7988 16.8481 12.722V12.6572C16.8481 12.5924 16.8454 12.5243 16.8437 12.4569V12.4203C16.8413 12.3425 16.8382 12.2638 16.8351 12.1847C16.8351 12.1643 16.8331 12.1436 16.8324 12.1232C16.8294 12.0566 16.826 11.9897 16.8221 11.9223C16.8221 11.9057 16.8221 11.8899 16.8194 11.872C16.8146 11.791 16.8094 11.7094 16.8037 11.6271L16.7996 11.5697C16.7945 11.501 16.7893 11.432 16.7835 11.3623C16.7835 11.3422 16.7804 11.3221 16.7787 11.3021C16.7716 11.2178 16.7637 11.1326 16.7555 11.047C16.7555 11.0308 16.7521 11.0146 16.7507 10.9981C16.7435 10.9252 16.7357 10.8516 16.7278 10.7774C16.7254 10.7551 16.723 10.733 16.7203 10.7107C16.7107 10.6225 16.7005 10.5341 16.6895 10.4443C16.6895 10.4333 16.6864 10.4223 16.6851 10.4119C16.6753 10.3316 16.6649 10.2508 16.654 10.1695C16.6506 10.1456 16.6475 10.1216 16.6441 10.0976C16.6313 10.0056 16.6182 9.91278 16.6048 9.81924C15.2376 0.592523 5.54905 2.08991 5.54905 2.08991L5.8594 4.07239L0 9.94076L0.256004 12.2068L2.47562 13.5029C2.57457 13.2645 2.70161 13.0374 2.85433 12.826C4.28645 11.2599 7.06491 10.0305 7.86026 9.7755C8.01954 9.72463 8.11012 9.69903 8.11012 9.69903C4.3056 14.3672 4.73831 19.7151 4.90784 20.9899C4.73147 21.0223 4.5951 21.2242 4.5951 21.4704C4.5951 21.7387 4.75676 21.9565 4.95603 21.9565H6.17932C4.14483 22.7639 2.5299 24.3016 1.6871 26.2338C1.68611 26.2365 1.68497 26.2391 1.68368 26.2416C1.62148 26.385 1.5636 26.5305 1.51005 26.6781C1.51015 26.6796 1.51015 26.6811 1.51005 26.6826C1.4957 26.7228 1.48169 26.763 1.46801 26.8035C1.46289 26.8181 1.45776 26.8327 1.45297 26.8476C1.44067 26.8839 1.42927 26.9205 1.41879 26.9574C1.41264 26.9762 1.40683 26.9953 1.40102 27.0141C1.39008 27.0488 1.37949 27.0838 1.36923 27.1188L1.35078 27.1836C1.34121 27.216 1.33164 27.2507 1.32275 27.2844C1.31626 27.3083 1.3101 27.332 1.30395 27.356C1.29575 27.3884 1.2872 27.4208 1.27934 27.4532C1.27148 27.4856 1.26396 27.518 1.25644 27.5523C1.24892 27.5867 1.23935 27.6269 1.23115 27.6645H0.743405C0.649613 27.6625 0.556355 27.6783 0.469101 27.711C0.381846 27.7437 0.302356 27.7925 0.235293 27.8547C0.16823 27.9169 0.114942 27.9912 0.0785645 28.0732C0.0421866 28.1552 0.0234484 28.2432 0.0234484 28.3322C0.0234484 28.4211 0.0421866 28.5091 0.0785645 28.5911C0.114942 28.6731 0.16823 28.7474 0.235293 28.8096C0.302356 28.8718 0.381846 28.9206 0.469101 28.9533C0.556355 28.986 0.649613 29.0018 0.743405 28.9998H18.03C18.1238 29.0018 18.2171 28.986 18.3043 28.9533C18.3916 28.9206 18.4711 28.8718 18.5382 28.8096C18.6052 28.7474 18.6585 28.6731 18.6949 28.5911C18.7313 28.5091 18.75 28.4211 18.75 28.3322C18.75 28.2432 18.7313 28.1552 18.6949 28.0732C18.6585 27.9912 18.6052 27.9169 18.5382 27.8547C18.4711 27.7925 18.3916 27.7437 18.3043 27.711C18.2171 27.6783 18.1238 27.6625 18.03 27.6645L18.0239 27.6586Z" fill="#595653"/>
<path d="M38.2736 27.6586H37.7862C37.7862 27.6534 37.7839 27.6483 37.7828 27.6434L37.7695 27.5838C37.761 27.5446 37.7517 27.5057 37.7422 27.4671C37.7381 27.449 37.7336 27.4308 37.7292 27.4127C37.7165 27.3618 37.7032 27.3109 37.6895 27.2601L37.6854 27.2455C37.6704 27.1904 37.6547 27.1355 37.6382 27.0809L37.6218 27.0281C37.6106 26.9905 37.5986 26.9532 37.5877 26.9159C37.5812 26.8955 37.5743 26.8754 37.5678 26.8553C37.5559 26.8194 37.5436 26.7834 37.5309 26.7478C37.5244 26.729 37.5176 26.7098 37.5111 26.6914C37.4952 26.6467 37.4787 26.6023 37.4619 26.5582C37.4581 26.5488 37.455 26.5397 37.4513 26.5303C37.4315 26.4785 37.4106 26.427 37.3894 26.3754C37.3819 26.3566 37.374 26.3382 37.3662 26.3197C37.3518 26.2873 37.3375 26.2517 37.3228 26.218L37.2951 26.1554C37.2807 26.123 37.266 26.0906 37.251 26.0582C37.2418 26.0381 37.2322 26.0177 37.2226 25.9976C37.2052 25.9603 37.1884 25.9234 37.169 25.8868C37.1618 25.8728 37.1553 25.8586 37.1481 25.8443C37.1238 25.7961 37.0989 25.7471 37.0736 25.7005L37.0394 25.6399L36.9912 25.552L36.9536 25.4872C36.9379 25.46 36.9222 25.4328 36.9061 25.4056C36.8935 25.3835 36.8805 25.3615 36.8675 25.3408C36.8497 25.3113 36.8333 25.2824 36.8138 25.2533L36.7646 25.1742C36.7414 25.1379 36.7181 25.1013 36.6942 25.0653C36.6792 25.0427 36.6641 25.0203 36.6488 24.9979C36.6334 24.9756 36.6166 24.95 36.6002 24.9263C36.5838 24.9027 36.566 24.879 36.551 24.8557C36.536 24.8324 36.5196 24.8113 36.5035 24.7909C36.4874 24.7705 36.4693 24.7432 36.4519 24.7196L36.4037 24.6548C36.3695 24.6117 36.3381 24.5686 36.3046 24.5252L36.2577 24.4659C36.2379 24.4409 36.2174 24.4163 36.1972 24.3917L36.1521 24.3372C36.1313 24.3123 36.1101 24.2876 36.0889 24.2627L36.0445 24.2115L35.9782 24.1363L35.9388 24.0929C35.8572 24.0031 35.7734 23.9147 35.6876 23.8285L35.65 23.7906L35.5714 23.7138L35.5328 23.6768C35.5054 23.6506 35.4781 23.6247 35.4504 23.5991L35.422 23.5731C35.3253 23.484 35.2259 23.3972 35.1247 23.3139L35.097 23.2909C35.0658 23.265 35.0343 23.2394 35.0027 23.2141L34.9712 23.1888C34.937 23.1629 34.9059 23.1373 34.8728 23.1117L34.856 23.0991C34.7443 23.0135 34.6298 22.9302 34.5142 22.8502L34.4982 22.8389C34.4616 22.8139 34.425 22.7893 34.3881 22.765L34.3639 22.7491C34.3263 22.7241 34.2883 22.6998 34.2504 22.6755L34.2439 22.6717C34.1181 22.5919 33.9899 22.5156 33.8594 22.4426L33.8542 22.4393C33.8129 22.4163 33.7715 22.394 33.7302 22.3716L33.712 22.3619C33.4919 22.2441 33.2659 22.1361 33.0339 22.0378L33.0196 22.0317C32.9584 22.0058 32.8969 21.9808 32.8347 21.9562H34.0579C34.2572 21.9562 34.4189 21.7387 34.4189 21.4701C34.4189 21.2015 34.2572 20.9841 34.0579 20.9841H33.6936C33.7161 20.9296 33.7411 20.868 33.7681 20.7987C34.1126 20.5952 34.719 20.1616 35.3205 19.3651L35.3253 19.359C35.3709 19.2994 35.4157 19.2377 35.4596 19.174L35.4685 19.1613C35.5123 19.0988 35.556 19.0343 35.5991 18.9669L35.6107 18.9491C35.6312 18.9167 35.6517 18.8843 35.6722 18.8519C35.6722 18.8519 35.6722 18.8493 35.6746 18.8477C35.6958 18.8152 35.7167 18.7796 35.7375 18.7449L35.7509 18.7226C35.7686 18.6928 35.7867 18.6623 35.8042 18.6315C35.8076 18.626 35.811 18.6205 35.8141 18.6147C35.8343 18.5797 35.8544 18.544 35.8742 18.5081L35.8879 18.4831C35.9043 18.4533 35.9204 18.4232 35.9365 18.3927C35.9412 18.3843 35.946 18.3755 35.9505 18.3668C35.9696 18.3302 35.9887 18.2932 36.0079 18.2556L36.0212 18.2294C36.0363 18.1989 36.0516 18.1678 36.0667 18.1367L36.0831 18.1043C36.1015 18.0661 36.1197 18.0272 36.1378 17.988L36.149 17.963C36.1641 17.9306 36.1788 17.8982 36.1935 17.8658L36.2109 17.8269C36.228 17.7877 36.2451 17.7482 36.2615 17.7083C36.2646 17.7012 36.2676 17.6937 36.2704 17.6866C36.2858 17.65 36.3008 17.6127 36.3158 17.5751L36.3329 17.5324C36.3469 17.4967 36.361 17.4608 36.3746 17.4248L36.3849 17.3976C36.401 17.3548 36.4167 17.3111 36.4324 17.268L36.4488 17.2219C36.4611 17.1876 36.4731 17.1526 36.485 17.1176C36.4895 17.1046 36.4939 17.0917 36.498 17.0787C36.5131 17.034 36.5281 16.9883 36.5428 16.9426C36.5476 16.9267 36.5527 16.9102 36.5575 16.8953L36.5917 16.7887C36.5961 16.7732 36.6009 16.7563 36.6053 16.7424C36.6194 16.6954 36.6334 16.6474 36.6467 16.5991C36.6511 16.5839 36.6552 16.5684 36.6593 16.5528C36.6696 16.5155 36.6799 16.4783 36.6898 16.4404C36.6942 16.4232 36.6987 16.406 36.7034 16.3888C36.7161 16.3389 36.7287 16.2887 36.741 16.2378L36.7513 16.1954C36.7609 16.1549 36.7704 16.114 36.7797 16.0729L36.792 16.0178C36.8036 15.965 36.8152 15.9122 36.8261 15.8584C36.8285 15.848 36.8306 15.8373 36.8326 15.826C36.8422 15.7796 36.8514 15.7327 36.8603 15.6857C36.8641 15.6666 36.8675 15.6474 36.8713 15.6283C36.8801 15.58 36.8887 15.5311 36.8972 15.4828C36.8989 15.4725 36.901 15.4624 36.9027 15.4524C36.9123 15.3953 36.9216 15.3379 36.9307 15.28C36.9338 15.2605 36.9369 15.2411 36.9396 15.2213C36.9468 15.1743 36.9536 15.127 36.9605 15.0791L36.9666 15.035C36.9748 14.9754 36.9827 14.9154 36.9902 14.8545C36.9926 14.8354 36.9946 14.8163 36.997 14.7968C37.003 14.7484 37.0084 14.6998 37.0134 14.651C37.0155 14.6335 37.0175 14.6163 37.0193 14.5988C37.0259 14.5362 37.032 14.473 37.0377 14.4093C37.0377 14.3915 37.0408 14.3736 37.0422 14.3555C37.0466 14.3043 37.051 14.2528 37.0548 14.2009C37.0548 14.1818 37.0579 14.1627 37.0592 14.1436C37.064 14.0775 37.0685 14.0109 37.0726 13.944C37.0726 13.9287 37.0726 13.9115 37.075 13.8979C37.078 13.8422 37.0811 13.7861 37.0835 13.7298C37.0835 13.7093 37.0835 13.6889 37.0862 13.6685C37.089 13.5989 37.0917 13.5289 37.0938 13.4579C37.0938 13.4482 37.0938 13.4381 37.0938 13.4281C37.0956 13.365 37.097 13.3013 37.0979 13.2369C37.0979 13.2158 37.0979 13.1948 37.0979 13.1737C37.0979 13.1046 37.0979 13.035 37.0979 12.965V12.9488C37.0979 12.8743 37.0979 12.7988 37.0979 12.722V12.6572C37.0979 12.5924 37.0951 12.5243 37.0934 12.4569V12.4203C37.091 12.3425 37.088 12.2638 37.0849 12.1847C37.0849 12.1643 37.0828 12.1436 37.0821 12.1232C37.0792 12.0566 37.0758 11.9897 37.0719 11.9223C37.0719 11.9057 37.0719 11.8899 37.0692 11.872C37.0644 11.791 37.0591 11.7094 37.0534 11.6271L37.0493 11.5697C37.0442 11.501 37.0391 11.432 37.0333 11.3623C37.0333 11.3422 37.0302 11.3221 37.0285 11.3021C37.0213 11.2178 37.0134 11.1326 37.0052 11.047C37.0052 11.0308 37.0018 11.0146 37.0005 10.9981C36.9933 10.9252 36.9854 10.8516 36.9776 10.7774C36.9752 10.7551 36.9728 10.733 36.97 10.7107C36.9605 10.6225 36.9502 10.5341 36.9393 10.4443C36.9393 10.4333 36.9362 10.4223 36.9348 10.4119C36.925 10.3316 36.9147 10.2508 36.9037 10.1695C36.9003 10.1456 36.8972 10.1216 36.8938 10.0976C36.8811 10.0056 36.868 9.91278 36.8545 9.81924C35.4873 0.592523 25.7988 2.08991 25.7988 2.08991L26.1092 4.07239L20.2498 9.94076L20.5058 12.2068L22.7254 13.5029C22.8243 13.2645 22.9514 13.0374 23.1041 12.826C24.5362 11.2599 27.3147 10.0305 28.11 9.7755C28.2693 9.72463 28.3599 9.69903 28.3599 9.69903C24.5554 14.3672 24.9881 19.7151 25.1576 20.9899C24.9812 21.0223 24.8449 21.2242 24.8449 21.4704C24.8449 21.7387 25.0065 21.9565 25.2058 21.9565H26.4291C24.3946 22.7639 22.7797 24.3016 21.9369 26.2338C21.9359 26.2365 21.9347 26.2391 21.9334 26.2416C21.8712 26.385 21.8134 26.5305 21.7598 26.6781C21.7599 26.6796 21.7599 26.6811 21.7598 26.6826C21.7455 26.7228 21.7314 26.763 21.7178 26.8035C21.7126 26.8181 21.7075 26.8327 21.7027 26.8476C21.6904 26.8839 21.679 26.9205 21.6685 26.9574C21.6624 26.9762 21.6566 26.9953 21.6508 27.0141C21.6398 27.0488 21.6292 27.0838 21.619 27.1188L21.6005 27.1836C21.591 27.216 21.5814 27.2507 21.5725 27.2844C21.566 27.3083 21.5599 27.332 21.5537 27.356C21.5455 27.3884 21.537 27.4208 21.5291 27.4532C21.5212 27.4856 21.5137 27.518 21.5062 27.5523C21.4987 27.5867 21.4891 27.6269 21.4809 27.6645H20.9932C20.8994 27.6625 20.8061 27.6783 20.7189 27.711C20.6316 27.7437 20.5521 27.7925 20.485 27.8547C20.418 27.9169 20.3647 27.9912 20.3283 28.0732C20.2919 28.1552 20.2732 28.2432 20.2732 28.3322C20.2732 28.4211 20.2919 28.5091 20.3283 28.5911C20.3647 28.6731 20.418 28.7474 20.485 28.8096C20.5521 28.8718 20.6316 28.9206 20.7189 28.9533C20.8061 28.986 20.8994 29.0018 20.9932 28.9998H38.2798C38.3736 29.0018 38.4668 28.986 38.5541 28.9533C38.6414 28.9206 38.7209 28.8718 38.7879 28.8096C38.855 28.7474 38.9083 28.6731 38.9446 28.5911C38.981 28.5091 38.9998 28.4211 38.9998 28.3322C38.9998 28.2432 38.981 28.1552 38.9446 28.0732C38.9083 27.9912 38.855 27.9169 38.7879 27.8547C38.7209 27.7925 38.6414 27.7437 38.5541 27.711C38.4668 27.6783 38.3736 27.6625 38.2798 27.6645L38.2736 27.6586Z" fill="#595653"/>
<path d="M58.5241 27.6586H58.0367C58.0367 27.6534 58.0343 27.6483 58.0333 27.6434L58.02 27.5838C58.0114 27.5446 58.0022 27.5057 57.9926 27.4671C57.9885 27.449 57.9841 27.4308 57.9797 27.4127C57.967 27.3618 57.9537 27.3109 57.94 27.2601L57.9359 27.2455C57.9209 27.1904 57.9051 27.1355 57.8887 27.0809L57.8723 27.0281C57.8611 26.9905 57.8491 26.9532 57.8382 26.9159C57.8317 26.8955 57.8248 26.8754 57.8183 26.8553C57.8064 26.8194 57.7941 26.7834 57.7814 26.7478C57.7749 26.729 57.7681 26.7098 57.7616 26.6914C57.7456 26.6467 57.7292 26.6023 57.7124 26.5582C57.7086 26.5488 57.7055 26.5397 57.7018 26.5303C57.682 26.4785 57.6611 26.427 57.6399 26.3754C57.6324 26.3566 57.6245 26.3382 57.6167 26.3197C57.6023 26.2873 57.588 26.2517 57.5733 26.218L57.5456 26.1554C57.5312 26.123 57.5165 26.0906 57.5015 26.0582C57.4923 26.0381 57.4827 26.0177 57.4731 25.9976C57.4557 25.9603 57.4389 25.9234 57.4195 25.8868C57.4123 25.8728 57.4058 25.8586 57.3986 25.8443C57.3743 25.7961 57.3494 25.7471 57.3241 25.7005L57.2899 25.6399L57.2417 25.552L57.2041 25.4872C57.1884 25.46 57.1727 25.4328 57.1566 25.4056C57.144 25.3835 57.131 25.3615 57.118 25.3408C57.1002 25.3113 57.0838 25.2824 57.0643 25.2533L57.0151 25.1742C56.9919 25.1379 56.9686 25.1013 56.9447 25.0653C56.9297 25.0427 56.9146 25.0203 56.8992 24.9979C56.8839 24.9756 56.8671 24.95 56.8507 24.9263C56.8343 24.9027 56.8165 24.879 56.8015 24.8557C56.7864 24.8324 56.77 24.8113 56.754 24.7909C56.7379 24.7705 56.7198 24.7432 56.7024 24.7196L56.6542 24.6548C56.62 24.6117 56.5885 24.5686 56.5551 24.5252L56.5082 24.4659C56.4884 24.4409 56.4679 24.4163 56.4477 24.3917L56.4026 24.3372C56.3818 24.3123 56.3606 24.2876 56.3394 24.2627L56.2949 24.2115L56.2286 24.1363L56.1893 24.0929C56.1076 24.0031 56.0239 23.9147 55.9381 23.8285L55.9005 23.7906L55.8219 23.7138L55.7833 23.6768C55.7559 23.6506 55.7286 23.6247 55.7009 23.5991L55.6725 23.5731C55.5758 23.484 55.4763 23.3972 55.3752 23.3139L55.3475 23.2909C55.3163 23.265 55.2848 23.2394 55.2532 23.2141L55.2217 23.1888C55.1875 23.1629 55.1564 23.1373 55.1233 23.1117L55.1065 23.0991C54.9948 23.0135 54.8803 22.9302 54.7647 22.8502L54.7487 22.8389C54.7121 22.8139 54.6755 22.7893 54.6386 22.765L54.6143 22.7491C54.5767 22.7241 54.5388 22.6998 54.5009 22.6755L54.4944 22.6717C54.3686 22.5919 54.2404 22.5156 54.1099 22.4426L54.1047 22.4393C54.0634 22.4163 54.022 22.394 53.9807 22.3716L53.9625 22.3619C53.7424 22.2441 53.5164 22.1361 53.2844 22.0378L53.2701 22.0317C53.2089 22.0058 53.1474 21.9808 53.0851 21.9562H54.3084C54.5077 21.9562 54.6694 21.7387 54.6694 21.4701C54.6694 21.2015 54.5077 20.9841 54.3084 20.9841H53.9441C53.9666 20.9296 53.9916 20.868 54.0186 20.7987C54.3631 20.5952 54.9695 20.1616 55.571 19.3651L55.5758 19.359C55.6214 19.2994 55.6662 19.2377 55.7101 19.174L55.719 19.1613C55.7628 19.0988 55.8065 19.0343 55.8496 18.9669L55.8612 18.9491C55.8817 18.9167 55.9022 18.8843 55.9227 18.8519C55.9227 18.8519 55.9227 18.8493 55.9251 18.8477C55.9463 18.8152 55.9672 18.7796 55.988 18.7449L56.0013 18.7226C56.0191 18.6928 56.0372 18.6623 56.0547 18.6315C56.0581 18.626 56.0615 18.6205 56.0646 18.6147C56.0847 18.5797 56.1049 18.544 56.1247 18.5081L56.1384 18.4831C56.1548 18.4533 56.1709 18.4232 56.1869 18.3927C56.1917 18.3843 56.1965 18.3755 56.201 18.3668C56.2201 18.3302 56.2392 18.2932 56.2584 18.2556L56.2717 18.2294C56.2867 18.1989 56.3021 18.1678 56.3172 18.1367L56.3336 18.1043C56.352 18.0661 56.3701 18.0272 56.3883 17.988L56.3995 17.963C56.4146 17.9306 56.4293 17.8982 56.444 17.8658L56.4614 17.8269C56.4785 17.7877 56.4956 17.7482 56.512 17.7083C56.5151 17.7012 56.5181 17.6937 56.5209 17.6866C56.5363 17.65 56.5513 17.6127 56.5663 17.5751L56.5834 17.5324C56.5974 17.4967 56.6114 17.4608 56.6251 17.4248L56.6354 17.3976C56.6514 17.3548 56.6672 17.3111 56.6829 17.268L56.6993 17.2219C56.7116 17.1876 56.7236 17.1526 56.7355 17.1176C56.74 17.1046 56.7444 17.0917 56.7485 17.0787C56.7635 17.034 56.7786 16.9883 56.7933 16.9426C56.7981 16.9267 56.8032 16.9102 56.808 16.8953L56.8422 16.7887C56.8466 16.7732 56.8514 16.7563 56.8558 16.7424C56.8698 16.6954 56.8839 16.6474 56.8972 16.5991C56.9016 16.5839 56.9057 16.5684 56.9098 16.5528C56.9201 16.5155 56.9303 16.4783 56.9403 16.4404C56.9447 16.4232 56.9491 16.406 56.9539 16.3888C56.9666 16.3389 56.9792 16.2887 56.9915 16.2378L57.0018 16.1954C57.0113 16.1549 57.0209 16.114 57.0301 16.0729L57.0425 16.0178C57.0541 15.965 57.0657 15.9122 57.0766 15.8584C57.079 15.848 57.0811 15.8373 57.0831 15.826C57.0927 15.7796 57.1019 15.7327 57.1108 15.6857C57.1146 15.6666 57.118 15.6474 57.1217 15.6283C57.1306 15.58 57.1392 15.5311 57.1477 15.4828C57.1494 15.4725 57.1515 15.4624 57.1532 15.4524C57.1628 15.3953 57.1721 15.3379 57.1812 15.28C57.1843 15.2605 57.1874 15.2411 57.1901 15.2213C57.1973 15.1743 57.2041 15.127 57.211 15.0791L57.2171 15.035C57.2253 14.9754 57.2332 14.9154 57.2407 14.8545C57.2431 14.8354 57.2451 14.8163 57.2475 14.7968C57.2535 14.7484 57.2589 14.6998 57.2639 14.651C57.266 14.6335 57.268 14.6163 57.2697 14.5988C57.2764 14.5362 57.2825 14.473 57.2882 14.4093C57.2882 14.3915 57.2913 14.3736 57.2926 14.3555C57.2971 14.3043 57.3015 14.2528 57.3053 14.2009C57.3053 14.1818 57.3084 14.1627 57.3097 14.1436C57.3145 14.0775 57.319 14.0109 57.3231 13.944C57.3231 13.9287 57.3231 13.9115 57.3255 13.8979C57.3285 13.8422 57.3316 13.7861 57.334 13.7298C57.334 13.7093 57.334 13.6889 57.3367 13.6685C57.3395 13.5989 57.3422 13.5289 57.3443 13.4579C57.3443 13.4482 57.3443 13.4381 57.3443 13.4281C57.3461 13.365 57.3474 13.3013 57.3484 13.2369C57.3484 13.2158 57.3484 13.1948 57.3484 13.1737C57.3484 13.1046 57.3484 13.035 57.3484 12.965V12.9488C57.3484 12.8743 57.3484 12.7988 57.3484 12.722V12.6572C57.3484 12.5924 57.3456 12.5243 57.3439 12.4569V12.4203C57.3415 12.3425 57.3384 12.2638 57.3354 12.1847C57.3354 12.1643 57.3333 12.1436 57.3326 12.1232C57.3297 12.0566 57.3263 11.9897 57.3224 11.9223C57.3224 11.9057 57.3224 11.8899 57.3196 11.872C57.3149 11.791 57.3096 11.7094 57.3039 11.6271L57.2998 11.5697C57.2947 11.501 57.2896 11.432 57.2838 11.3623C57.2838 11.3422 57.2807 11.3221 57.279 11.3021C57.2718 11.2178 57.2639 11.1326 57.2557 11.047C57.2557 11.0308 57.2523 11.0146 57.2509 10.9981C57.2438 10.9252 57.2359 10.8516 57.228 10.7774C57.2257 10.7551 57.2233 10.733 57.2205 10.7107C57.211 10.6225 57.2007 10.5341 57.1898 10.4443C57.1898 10.4333 57.1867 10.4223 57.1853 10.4119C57.1755 10.3316 57.1652 10.2508 57.1542 10.1695C57.1508 10.1456 57.1477 10.1216 57.1443 10.0976C57.1315 10.0056 57.1184 9.91278 57.105 9.81924C55.7378 0.592523 46.0493 2.08991 46.0493 2.08991L46.3596 4.07239L40.5002 9.94076L40.7562 12.2068L42.9759 13.5029C43.0748 13.2645 43.2019 13.0374 43.3546 12.826C44.7867 11.2599 47.5652 10.0305 48.3605 9.7755C48.5198 9.72463 48.6104 9.69903 48.6104 9.69903C44.8058 14.3672 45.2386 19.7151 45.4081 20.9899C45.2317 21.0223 45.0953 21.2242 45.0953 21.4704C45.0953 21.7387 45.257 21.9565 45.4563 21.9565H46.6796C44.6451 22.7639 43.0301 24.3016 42.1873 26.2338C42.1864 26.2365 42.1852 26.2391 42.1839 26.2416C42.1217 26.385 42.0638 26.5305 42.0103 26.6781C42.0104 26.6796 42.0104 26.6811 42.0103 26.6826C41.9959 26.7228 41.9819 26.763 41.9683 26.8035C41.9631 26.8181 41.958 26.8327 41.9532 26.8476C41.9409 26.8839 41.9295 26.9205 41.919 26.9574C41.9129 26.9762 41.9071 26.9953 41.9013 27.0141C41.8903 27.0488 41.8797 27.0838 41.8695 27.1188L41.851 27.1836C41.8414 27.216 41.8319 27.2507 41.823 27.2844C41.8165 27.3083 41.8103 27.332 41.8042 27.356C41.796 27.3884 41.7874 27.4208 41.7796 27.4532C41.7717 27.4856 41.7642 27.518 41.7567 27.5523C41.7492 27.5867 41.7396 27.6269 41.7314 27.6645H41.2436C41.1499 27.6625 41.0566 27.6783 40.9693 27.711C40.8821 27.7437 40.8026 27.7925 40.7355 27.8547C40.6685 27.9169 40.6152 27.9912 40.5788 28.0732C40.5424 28.1552 40.5237 28.2432 40.5237 28.3322C40.5237 28.4211 40.5424 28.5091 40.5788 28.5911C40.6152 28.6731 40.6685 28.7474 40.7355 28.8096C40.8026 28.8718 40.8821 28.9206 40.9693 28.9533C41.0566 28.986 41.1499 29.0018 41.2436 28.9998H58.5303C58.6241 29.0018 58.7173 28.986 58.8046 28.9533C58.8918 28.9206 58.9713 28.8718 59.0384 28.8096C59.1055 28.7474 59.1587 28.6731 59.1951 28.5911C59.2315 28.5091 59.2502 28.4211 59.2502 28.3322C59.2502 28.2432 59.2315 28.1552 59.1951 28.0732C59.1587 27.9912 59.1055 27.9169 59.0384 27.8547C58.9713 27.7925 58.8918 27.7437 58.8046 27.711C58.7173 27.6783 58.6241 27.6625 58.5303 27.6645L58.5241 27.6586Z" fill="#595653"/>
<path d="M78.7739 27.6586H78.2865C78.2865 27.6534 78.2841 27.6483 78.2831 27.6434L78.2697 27.5838C78.2612 27.5446 78.252 27.5057 78.2424 27.4671C78.2383 27.449 78.2339 27.4308 78.2294 27.4127C78.2168 27.3618 78.2034 27.3109 78.1898 27.2601L78.1857 27.2455C78.1706 27.1904 78.1549 27.1355 78.1385 27.0809L78.1221 27.0281C78.1108 26.9905 78.0988 26.9532 78.0879 26.9159C78.0814 26.8955 78.0746 26.8754 78.0681 26.8553C78.0561 26.8194 78.0438 26.7834 78.0312 26.7478C78.0247 26.729 78.0178 26.7098 78.0113 26.6914C77.9954 26.6467 77.979 26.6023 77.9621 26.5582C77.9584 26.5488 77.9553 26.5397 77.9515 26.5303C77.9317 26.4785 77.9109 26.427 77.8897 26.3754C77.8821 26.3566 77.8743 26.3382 77.8664 26.3197C77.8521 26.2873 77.8377 26.2517 77.823 26.218L77.7953 26.1554C77.781 26.123 77.7663 26.0906 77.7512 26.0582C77.742 26.0381 77.7324 26.0177 77.7229 25.9976C77.7054 25.9603 77.6887 25.9234 77.6692 25.8868C77.662 25.8728 77.6555 25.8586 77.6484 25.8443C77.6241 25.7961 77.5991 25.7471 77.5738 25.7005L77.5397 25.6399L77.4915 25.552L77.4539 25.4872C77.4382 25.46 77.4224 25.4328 77.4064 25.4056C77.3937 25.3835 77.3807 25.3615 77.3677 25.3408C77.35 25.3113 77.3336 25.2824 77.3141 25.2533L77.2649 25.1742C77.2416 25.1379 77.2184 25.1013 77.1945 25.0653C77.1794 25.0427 77.1644 25.0203 77.149 24.9979C77.1336 24.9756 77.1169 24.95 77.1005 24.9263C77.0841 24.9027 77.0663 24.879 77.0512 24.8557C77.0362 24.8324 77.0198 24.8113 77.0037 24.7909C76.9877 24.7705 76.9696 24.7432 76.9521 24.7196L76.9039 24.6548C76.8697 24.6117 76.8383 24.5686 76.8048 24.5252L76.758 24.4659C76.7382 24.4409 76.7176 24.4163 76.6975 24.3917L76.6524 24.3372C76.6315 24.3123 76.6103 24.2876 76.5891 24.2627L76.5447 24.2115L76.4784 24.1363L76.4391 24.0929C76.3574 24.0031 76.2737 23.9147 76.1879 23.8285L76.1503 23.7906L76.0717 23.7138L76.033 23.6768C76.0057 23.6506 75.9783 23.6247 75.9507 23.5991L75.9223 23.5731C75.8256 23.484 75.7261 23.3972 75.6249 23.3139L75.5972 23.2909C75.566 23.265 75.5346 23.2394 75.5029 23.2141L75.4715 23.1888C75.4373 23.1629 75.4062 23.1373 75.373 23.1117L75.3563 23.0991C75.2445 23.0135 75.13 22.9302 75.0145 22.8502L74.9984 22.8389C74.9618 22.8139 74.9253 22.7893 74.8884 22.765L74.8641 22.7491C74.8265 22.7241 74.7886 22.6998 74.7506 22.6755L74.7441 22.6717C74.6183 22.5919 74.4902 22.5156 74.3596 22.4426L74.3545 22.4393C74.3131 22.4163 74.2718 22.394 74.2304 22.3716L74.2123 22.3619C73.9922 22.2441 73.7661 22.1361 73.5342 22.0378L73.5198 22.0317C73.4586 22.0058 73.3971 21.9808 73.3349 21.9562H74.5582C74.7575 21.9562 74.9191 21.7387 74.9191 21.4701C74.9191 21.2015 74.7575 20.9841 74.5582 20.9841H74.1938C74.2164 20.9296 74.2413 20.868 74.2683 20.7987C74.6129 20.5952 75.2192 20.1616 75.8208 19.3651L75.8256 19.359C75.8711 19.2994 75.9159 19.2377 75.9599 19.174L75.9688 19.1613C76.0125 19.0988 76.0563 19.0343 76.0993 18.9669L76.111 18.9491C76.1315 18.9167 76.152 18.8843 76.1725 18.8519C76.1725 18.8519 76.1725 18.8493 76.1749 18.8477C76.1961 18.8152 76.2169 18.7796 76.2378 18.7449L76.2511 18.7226C76.2689 18.6928 76.287 18.6623 76.3044 18.6315C76.3078 18.626 76.3113 18.6205 76.3143 18.6147C76.3345 18.5797 76.3547 18.544 76.3745 18.5081L76.3882 18.4831C76.4046 18.4533 76.4206 18.4232 76.4367 18.3927C76.4415 18.3843 76.4463 18.3755 76.4507 18.3668C76.4698 18.3302 76.489 18.2932 76.5081 18.2556L76.5215 18.2294C76.5365 18.1989 76.5519 18.1678 76.5669 18.1367L76.5833 18.1043C76.6018 18.0661 76.6199 18.0272 76.638 17.988L76.6493 17.963C76.6643 17.9306 76.679 17.8982 76.6937 17.8658L76.7112 17.8269C76.7282 17.7877 76.7453 17.7482 76.7617 17.7083C76.7648 17.7012 76.7679 17.6937 76.7706 17.6866C76.786 17.65 76.801 17.6127 76.8161 17.5751L76.8332 17.5324C76.8472 17.4967 76.8612 17.4608 76.8749 17.4248L76.8851 17.3976C76.9012 17.3548 76.9169 17.3111 76.9326 17.268L76.949 17.2219C76.9614 17.1876 76.9733 17.1526 76.9853 17.1176C76.9897 17.1046 76.9942 17.0917 76.9983 17.0787C77.0133 17.034 77.0283 16.9883 77.043 16.9426C77.0478 16.9267 77.053 16.9102 77.0577 16.8953L77.0919 16.7887C77.0964 16.7732 77.1011 16.7563 77.1056 16.7424C77.1196 16.6954 77.1336 16.6474 77.1469 16.5991C77.1514 16.5839 77.1555 16.5684 77.1596 16.5528C77.1698 16.5155 77.1801 16.4783 77.19 16.4404C77.1945 16.4232 77.1989 16.406 77.2037 16.3888C77.2163 16.3389 77.229 16.2887 77.2413 16.2378L77.2515 16.1954C77.2611 16.1549 77.2707 16.114 77.2799 16.0729L77.2922 16.0178C77.3038 15.965 77.3154 15.9122 77.3264 15.8584C77.3288 15.848 77.3308 15.8373 77.3329 15.826C77.3425 15.7796 77.3517 15.7327 77.3606 15.6857C77.3643 15.6666 77.3677 15.6474 77.3715 15.6283C77.3804 15.58 77.3889 15.5311 77.3975 15.4828C77.3992 15.4725 77.4012 15.4624 77.4029 15.4524C77.4125 15.3953 77.4219 15.3379 77.431 15.28C77.4341 15.2605 77.4371 15.2411 77.4399 15.2213C77.447 15.1743 77.4539 15.127 77.4607 15.0791L77.4669 15.035C77.4751 14.9754 77.4829 14.9154 77.4904 14.8545C77.4928 14.8354 77.4949 14.8163 77.4973 14.7968C77.5032 14.7484 77.5087 14.6998 77.5137 14.651C77.5157 14.6335 77.5178 14.6163 77.5195 14.5988C77.5261 14.5362 77.5323 14.473 77.538 14.4093C77.538 14.3915 77.541 14.3736 77.5424 14.3555C77.5468 14.3043 77.5513 14.2528 77.555 14.2009C77.555 14.1818 77.5581 14.1627 77.5595 14.1436C77.5643 14.0775 77.5687 14.0109 77.5728 13.944C77.5728 13.9287 77.5728 13.9115 77.5752 13.8979C77.5783 13.8422 77.5814 13.7861 77.5838 13.7298C77.5838 13.7093 77.5838 13.6889 77.5865 13.6685C77.5892 13.5989 77.592 13.5289 77.594 13.4579C77.594 13.4482 77.594 13.4381 77.594 13.4281C77.5958 13.365 77.5972 13.3013 77.5981 13.2369C77.5981 13.2158 77.5981 13.1948 77.5981 13.1737C77.5981 13.1046 77.5981 13.035 77.5981 12.965V12.9488C77.5981 12.8743 77.5981 12.7988 77.5981 12.722V12.6572C77.5981 12.5924 77.5954 12.5243 77.5937 12.4569V12.4203C77.5913 12.3425 77.5882 12.2638 77.5851 12.1847C77.5851 12.1643 77.5831 12.1436 77.5824 12.1232C77.5794 12.0566 77.576 11.9897 77.5721 11.9223C77.5721 11.9057 77.5721 11.8899 77.5694 11.872C77.5646 11.791 77.5594 11.7094 77.5537 11.6271L77.5496 11.5697C77.5445 11.501 77.5393 11.432 77.5335 11.3623C77.5335 11.3422 77.5304 11.3221 77.5287 11.3021C77.5216 11.2178 77.5137 11.1326 77.5055 11.047C77.5055 11.0308 77.5021 11.0146 77.5007 10.9981C77.4935 10.9252 77.4857 10.8516 77.4778 10.7774C77.4754 10.7551 77.473 10.733 77.4703 10.7107C77.4607 10.6225 77.4505 10.5341 77.4395 10.4443C77.4395 10.4333 77.4364 10.4223 77.4351 10.4119C77.4253 10.3316 77.4149 10.2508 77.404 10.1695C77.4006 10.1456 77.3975 10.1216 77.3941 10.0976C77.3813 10.0056 77.3682 9.91278 77.3548 9.81924C75.9876 0.592523 66.299 2.08991 66.299 2.08991L66.6094 4.07239L60.75 9.94076L61.006 12.2068L63.2256 13.5029C63.3246 13.2645 63.4516 13.0374 63.6043 12.826C65.0365 11.2599 67.8149 10.0305 68.6103 9.7755C68.7695 9.72463 68.8601 9.69903 68.8601 9.69903C65.0556 14.3672 65.4883 19.7151 65.6578 20.9899C65.4815 21.0223 65.3451 21.2242 65.3451 21.4704C65.3451 21.7387 65.5068 21.9565 65.706 21.9565H66.9293C64.8948 22.7639 63.2799 24.3016 62.4371 26.2338C62.4361 26.2365 62.435 26.2391 62.4337 26.2416C62.3715 26.385 62.3136 26.5305 62.2601 26.6781C62.2601 26.6796 62.2601 26.6811 62.2601 26.6826C62.2457 26.7228 62.2317 26.763 62.218 26.8035C62.2129 26.8181 62.2078 26.8327 62.203 26.8476C62.1907 26.8839 62.1793 26.9205 62.1688 26.9574C62.1626 26.9762 62.1568 26.9953 62.151 27.0141C62.1401 27.0488 62.1295 27.0838 62.1192 27.1188L62.1008 27.1836C62.0912 27.216 62.0816 27.2507 62.0728 27.2844C62.0663 27.3083 62.0601 27.332 62.0539 27.356C62.0457 27.3884 62.0372 27.4208 62.0293 27.4532C62.0215 27.4856 62.014 27.518 62.0064 27.5523C61.9989 27.5867 61.9894 27.6269 61.9811 27.6645H61.4934C61.3996 27.6625 61.3064 27.6783 61.2191 27.711C61.1318 27.7437 61.0524 27.7925 60.9853 27.8547C60.9182 27.9169 60.8649 27.9912 60.8286 28.0732C60.7922 28.1552 60.7734 28.2432 60.7734 28.3322C60.7734 28.4211 60.7922 28.5091 60.8286 28.5911C60.8649 28.6731 60.9182 28.7474 60.9853 28.8096C61.0524 28.8718 61.1318 28.9206 61.2191 28.9533C61.3064 28.986 61.3996 29.0018 61.4934 28.9998H78.78C78.8738 29.0018 78.9671 28.986 79.0543 28.9533C79.1416 28.9206 79.2211 28.8718 79.2882 28.8096C79.3552 28.7474 79.4085 28.6731 79.4449 28.5911C79.4813 28.5091 79.5 28.4211 79.5 28.3322C79.5 28.2432 79.4813 28.1552 79.4449 28.0732C79.4085 27.9912 79.3552 27.9169 79.2882 27.8547C79.2211 27.7925 79.1416 27.7437 79.0543 27.711C78.9671 27.6783 78.8738 27.6625 78.78 27.6645L78.7739 27.6586Z" fill="#595653"/>
<path d="M86.0841 2.67962H88.1679V7.07247C88.6325 7.02554 88.947 6.90586 89.1113 6.71344C89.2755 6.52102 89.529 5.98599 89.8716 5.10836C90.3033 3.99137 90.7375 3.29678 91.1739 3.02457C91.6057 2.75236 92.3026 2.61626 93.2648 2.61626C93.3117 2.61626 93.4126 2.61391 93.5675 2.60922V4.15094L93.2718 4.1439C92.8447 4.1439 92.5326 4.19787 92.3355 4.30582C92.1384 4.40907 91.9788 4.56864 91.8568 4.78453C91.7348 5.00041 91.5541 5.44392 91.3147 6.11505C91.188 6.47174 91.0496 6.76976 90.8994 7.00911C90.7539 7.24846 90.4934 7.47374 90.118 7.68493C90.5826 7.81634 90.9651 8.08151 91.2654 8.48043C91.5705 8.87936 91.9037 9.44254 92.2651 10.17L93.6731 13H91.2232L89.9912 10.3319C89.9725 10.2944 89.9326 10.2216 89.8716 10.1137C89.8481 10.0761 89.7613 9.91421 89.6111 9.62792C89.3436 9.12106 89.123 8.80427 88.9493 8.67755C88.7804 8.55083 88.5199 8.48513 88.1679 8.48043V13H86.0841V2.67962ZM95.5879 2.67962H102.818V13H100.734V4.42549H97.6294V8.83242C97.6294 10.0949 97.5872 10.9772 97.5027 11.4794C97.4182 11.9769 97.2117 12.3664 96.8832 12.648C96.5594 12.9249 96.0502 13.0634 95.3556 13.0634C95.1115 13.0634 94.668 13.0399 94.0251 12.993V11.3808L94.4897 11.3879C94.9262 11.3879 95.2195 11.3292 95.3697 11.2119C95.5198 11.0946 95.5949 10.8059 95.5949 10.346L95.5879 8.57195V2.67962ZM103.923 2.67962H106.253L108.661 8.03692L110.716 2.67962H112.892L109.407 10.522C109.027 11.3715 108.64 12.0191 108.245 12.465C107.851 12.9061 107.342 13.1267 106.718 13.1267C106.103 13.1267 105.622 13.0868 105.275 13.007V11.4583C105.57 11.4771 105.838 11.4864 106.077 11.4864C106.561 11.4864 106.906 11.3996 107.112 11.226C107.323 11.0476 107.525 10.6675 107.718 10.0855L103.923 2.67962ZM113.983 2.67962H121.699V4.41142H116.067V6.80496H118.855C119.624 6.80496 120.262 6.89882 120.769 7.08655C121.276 7.27428 121.708 7.62157 122.065 8.12844C122.426 8.63531 122.607 9.229 122.607 9.90952C122.607 10.6088 122.426 11.2072 122.065 11.7047C121.703 12.2022 121.29 12.5424 120.826 12.7254C120.366 12.9085 119.709 13 118.855 13H113.983V2.67962ZM116.067 11.2682H118.094C118.742 11.2682 119.197 11.2377 119.46 11.1767C119.723 11.111 119.95 10.9655 120.143 10.7402C120.34 10.5149 120.438 10.238 120.438 9.90952C120.438 9.43081 120.267 9.08351 119.925 8.86762C119.587 8.64704 119.007 8.53675 118.186 8.53675H116.067V11.2682ZM85.88 18.6796H87.9638V21.1436C87.9638 21.9414 87.9919 22.4717 88.0482 22.7346C88.1093 22.9927 88.2853 23.218 88.5762 23.4104C88.8672 23.6028 89.2943 23.699 89.8575 23.699C90.3033 23.699 90.6999 23.6521 91.0472 23.5582C91.3945 23.4597 91.6949 23.3165 91.9483 23.1288V18.6796H94.0321V29H91.9483V24.8465C91.5259 25.0342 91.1106 25.1774 90.7023 25.2759C90.2939 25.3698 89.8927 25.4167 89.4984 25.4167C88.4706 25.4167 87.6094 25.175 86.9148 24.6916C86.2249 24.2035 85.88 23.3611 85.88 22.1643V18.6796ZM96.1863 29V18.6796H103.839V20.4255H98.2701V22.7134H103.451V24.4523H98.2701V27.2612H104.036V29H96.1863ZM108.126 29V20.4255H105.063V18.6796H113.265V20.4255H110.21V29H108.126ZM114.673 18.6796H116.757V22.805H119.544C120.277 22.805 120.905 22.9059 121.431 23.1077C121.961 23.3048 122.403 23.6615 122.755 24.1777C123.107 24.6893 123.283 25.2783 123.283 25.9447C123.283 26.644 123.1 27.2471 122.733 27.754C122.367 28.2561 121.959 28.5893 121.509 28.7536C121.063 28.9179 120.408 29 119.544 29H114.673V18.6796ZM116.757 27.2682H118.791C119.439 27.2682 119.889 27.2377 120.143 27.1767C120.401 27.111 120.629 26.9655 120.826 26.7402C121.027 26.5149 121.128 26.2404 121.128 25.9166C121.128 25.4566 120.964 25.1117 120.636 24.8817C120.312 24.6517 119.725 24.5368 118.876 24.5368H116.757V27.2682ZM124.486 18.6796H126.57V29H124.486V18.6796ZM128.738 29V18.6796H132.082C133.35 18.6796 134.176 18.7312 134.56 18.8345C135.152 18.9894 135.647 19.3273 136.046 19.8482C136.445 20.3645 136.644 21.0333 136.644 21.8546C136.644 22.4882 136.529 23.0208 136.299 23.4526C136.069 23.8844 135.776 24.2247 135.419 24.4734C135.067 24.7174 134.708 24.8794 134.342 24.9591C133.845 25.0577 133.124 25.107 132.181 25.107H130.822V29H128.738ZM130.822 20.4255V23.3541H131.963C132.784 23.3541 133.333 23.3001 133.61 23.1921C133.887 23.0842 134.103 22.9152 134.258 22.6853C134.417 22.4553 134.497 22.1878 134.497 21.8827C134.497 21.5073 134.387 21.1975 134.166 20.9535C133.946 20.7094 133.666 20.5569 133.328 20.4959C133.08 20.449 132.58 20.4255 131.829 20.4255H130.822ZM138.355 29V18.6796H146.007V20.4255H140.439V22.7134H145.62V24.4523H140.439V27.2612H146.204V29H138.355ZM146.922 29L150.449 23.6145L147.253 18.6796H149.689L151.759 21.9954L153.786 18.6796H156.201L152.991 23.692L156.518 29H154.004L151.716 25.4308L149.421 29H146.922ZM161.78 18.6796H163.863V23.0725C164.328 23.0255 164.643 22.9059 164.807 22.7134C164.971 22.521 165.225 21.986 165.567 21.1084C165.999 19.9914 166.433 19.2968 166.869 19.0246C167.301 18.7524 167.998 18.6163 168.96 18.6163C169.007 18.6163 169.108 18.6139 169.263 18.6092V20.1509L168.967 20.1439C168.54 20.1439 168.228 20.1979 168.031 20.3058C167.834 20.4091 167.674 20.5686 167.552 20.7845C167.43 21.0004 167.25 21.4439 167.01 22.1151C166.884 22.4717 166.745 22.7698 166.595 23.0091C166.449 23.2485 166.189 23.4737 165.814 23.6849C166.278 23.8163 166.661 24.0815 166.961 24.4804C167.266 24.8794 167.599 25.4425 167.961 26.17L169.369 29H166.919L165.687 26.3319C165.668 26.2944 165.628 26.2216 165.567 26.1137C165.544 26.0761 165.457 25.9142 165.307 25.6279C165.039 25.1211 164.819 24.8043 164.645 24.6775C164.476 24.5508 164.215 24.4851 163.863 24.4804V29H161.78V18.6796ZM170.122 23.9032C170.122 22.8519 170.279 21.9696 170.594 21.2562C170.828 20.7306 171.147 20.2589 171.551 19.8412C171.959 19.4235 172.405 19.1137 172.889 18.9119C173.532 18.6397 174.273 18.5036 175.113 18.5036C176.634 18.5036 177.849 18.9753 178.76 19.9186C179.675 20.862 180.133 22.1737 180.133 23.8539C180.133 25.52 179.68 26.8247 178.774 27.768C177.868 28.7067 176.657 29.176 175.141 29.176C173.607 29.176 172.386 28.709 171.481 27.7751C170.575 26.8364 170.122 25.5458 170.122 23.9032ZM172.269 23.8328C172.269 25.0014 172.539 25.8884 173.079 26.4938C173.618 27.0946 174.304 27.3949 175.134 27.3949C175.965 27.3949 176.645 27.0969 177.176 26.5009C177.711 25.9001 177.978 25.0014 177.978 23.8046C177.978 22.6219 177.718 21.7396 177.197 21.1576C176.681 20.5757 175.993 20.2847 175.134 20.2847C174.275 20.2847 173.583 20.5804 173.057 21.1717C172.532 21.7584 172.269 22.6454 172.269 23.8328ZM181.773 29V18.6796H183.857V22.7416H187.94V18.6796H190.023V29H187.94V24.4875H183.857V29H181.773ZM192.185 29V18.6796H199.837V20.4255H194.268V22.7134H199.45V24.4523H194.268V27.2612H200.034V29H192.185ZM201.829 18.6796H203.779V25.5505L207.961 18.6796H210.038V29H208.088V22.2629L203.913 29H201.829V18.6796ZM207.18 16.1101H208.144C208.088 16.7484 207.862 17.2505 207.468 17.6166C207.079 17.978 206.572 18.1587 205.948 18.1587C205.323 18.1587 204.814 17.978 204.42 17.6166C204.03 17.2505 203.807 16.7484 203.751 16.1101H204.716C204.748 16.4433 204.866 16.6967 205.068 16.8704C205.269 17.0393 205.563 17.1238 205.948 17.1238C206.332 17.1238 206.626 17.0393 206.828 16.8704C207.029 16.6967 207.147 16.4433 207.18 16.1101Z" fill="#595653"/>
</svg>
